<mxfile host="app.diagrams.net" modified="2021-12-11T21:17:15.641Z" agent="5.0 (Windows)" etag="M5nAPUNgeA4DPs0xs7WI" version="15.9.4" type="github" pages="7">
  <diagram name="Login" id="Vz1btIOmLqqJYgxe-6cd">
    <mxGraphModel dx="2036" dy="678" grid="1" gridSize="10" guides="1" tooltips="1" connect="1" arrows="1" fold="1" page="1" pageScale="1" pageWidth="827" pageHeight="1169" math="0" shadow="0">
      <root>
        <mxCell id="8gFfHAogJ4UCt75-UBTD-0" />
        <mxCell id="8gFfHAogJ4UCt75-UBTD-1" parent="8gFfHAogJ4UCt75-UBTD-0" />
        <mxCell id="8gFfHAogJ4UCt75-UBTD-19" value="alt" style="shape=umlFrame;tabWidth=110;tabHeight=30;tabPosition=left;html=1;boundedLbl=1;labelInHeader=1;width=140;height=30;fillColor=#FFFFFF;" parent="8gFfHAogJ4UCt75-UBTD-1" vertex="1">
          <mxGeometry x="-827" y="240" width="380" height="250" as="geometry" />
        </mxCell>
        <mxCell id="8gFfHAogJ4UCt75-UBTD-20" value="validate success" style="text;fillColor=#FFFFFF;" parent="8gFfHAogJ4UCt75-UBTD-19" vertex="1">
          <mxGeometry width="100" height="20" relative="1" as="geometry">
            <mxPoint x="20" y="40" as="offset" />
          </mxGeometry>
        </mxCell>
        <mxCell id="8gFfHAogJ4UCt75-UBTD-21" value="validate error" style="line;strokeWidth=1;dashed=1;labelPosition=center;verticalLabelPosition=bottom;align=left;verticalAlign=top;spacingLeft=20;spacingTop=15;fillColor=#FFFFFF;" parent="8gFfHAogJ4UCt75-UBTD-19" vertex="1">
          <mxGeometry y="125" width="380" height="10" as="geometry" />
        </mxCell>
        <mxCell id="8gFfHAogJ4UCt75-UBTD-3" value="LoginPage" style="shape=umlLifeline;perimeter=lifelinePerimeter;whiteSpace=wrap;html=1;container=1;collapsible=0;recursiveResize=0;outlineConnect=0;" parent="8gFfHAogJ4UCt75-UBTD-1" vertex="1">
          <mxGeometry x="-567" width="100" height="490" as="geometry" />
        </mxCell>
        <mxCell id="8gFfHAogJ4UCt75-UBTD-4" value="" style="html=1;points=[];perimeter=orthogonalPerimeter;fillColor=#FFFFFF;" parent="8gFfHAogJ4UCt75-UBTD-3" vertex="1">
          <mxGeometry x="45" y="90" width="10" height="20" as="geometry" />
        </mxCell>
        <mxCell id="8gFfHAogJ4UCt75-UBTD-12" value="" style="html=1;points=[];perimeter=orthogonalPerimeter;fillColor=#FFFFFF;" parent="8gFfHAogJ4UCt75-UBTD-3" vertex="1">
          <mxGeometry x="45" y="130" width="10" height="330" as="geometry" />
        </mxCell>
        <mxCell id="8gFfHAogJ4UCt75-UBTD-5" value="User" style="shape=umlLifeline;perimeter=lifelinePerimeter;whiteSpace=wrap;html=1;container=1;collapsible=0;recursiveResize=0;outlineConnect=0;" parent="8gFfHAogJ4UCt75-UBTD-1" vertex="1">
          <mxGeometry x="-687" width="100" height="490" as="geometry" />
        </mxCell>
        <mxCell id="8gFfHAogJ4UCt75-UBTD-6" value="" style="html=1;points=[];perimeter=orthogonalPerimeter;" parent="8gFfHAogJ4UCt75-UBTD-5" vertex="1">
          <mxGeometry x="45" y="90" width="10" height="370" as="geometry" />
        </mxCell>
        <mxCell id="8gFfHAogJ4UCt75-UBTD-7" value="Database" style="shape=umlLifeline;perimeter=lifelinePerimeter;whiteSpace=wrap;html=1;container=1;collapsible=0;recursiveResize=0;outlineConnect=0;fillColor=#FFFFFF;" parent="8gFfHAogJ4UCt75-UBTD-1" vertex="1">
          <mxGeometry x="-327" width="100" height="300" as="geometry" />
        </mxCell>
        <mxCell id="8gFfHAogJ4UCt75-UBTD-8" value="" style="html=1;points=[];perimeter=orthogonalPerimeter;" parent="8gFfHAogJ4UCt75-UBTD-7" vertex="1">
          <mxGeometry x="45" y="150" width="10" height="20" as="geometry" />
        </mxCell>
        <mxCell id="8gFfHAogJ4UCt75-UBTD-9" value="UserService" style="shape=umlLifeline;perimeter=lifelinePerimeter;whiteSpace=wrap;html=1;container=1;collapsible=0;recursiveResize=0;outlineConnect=0;fillColor=#FFFFFF;" parent="8gFfHAogJ4UCt75-UBTD-1" vertex="1">
          <mxGeometry x="-447" width="100" height="300" as="geometry" />
        </mxCell>
        <mxCell id="8gFfHAogJ4UCt75-UBTD-10" value="" style="html=1;points=[];perimeter=orthogonalPerimeter;fillColor=#FFFFFF;" parent="8gFfHAogJ4UCt75-UBTD-9" vertex="1">
          <mxGeometry x="45" y="140" width="10" height="60" as="geometry" />
        </mxCell>
        <mxCell id="8gFfHAogJ4UCt75-UBTD-11" value="enter credentials" style="endArrow=block;html=1;endSize=8;startArrow=none;startSize=14;startFill=0;edgeStyle=orthogonalEdgeStyle;align=center;verticalAlign=bottom;endFill=1;rounded=0;exitX=1;exitY=0.008;exitDx=0;exitDy=0;exitPerimeter=0;strokeWidth=1;" parent="8gFfHAogJ4UCt75-UBTD-1" source="8gFfHAogJ4UCt75-UBTD-6" target="8gFfHAogJ4UCt75-UBTD-4" edge="1">
          <mxGeometry y="3" relative="1" as="geometry">
            <mxPoint x="-487" y="190" as="sourcePoint" />
            <mxPoint x="-327" y="190" as="targetPoint" />
            <Array as="points">
              <mxPoint x="-537" y="91" />
              <mxPoint x="-537" y="91" />
            </Array>
          </mxGeometry>
        </mxCell>
        <mxCell id="8gFfHAogJ4UCt75-UBTD-13" value="press login" style="endArrow=block;html=1;endSize=8;startArrow=none;startSize=14;startFill=0;edgeStyle=orthogonalEdgeStyle;align=center;verticalAlign=bottom;endFill=1;rounded=0;strokeWidth=1;" parent="8gFfHAogJ4UCt75-UBTD-1" source="8gFfHAogJ4UCt75-UBTD-6" target="8gFfHAogJ4UCt75-UBTD-12" edge="1">
          <mxGeometry y="3" relative="1" as="geometry">
            <mxPoint x="-622" y="100.96000000000004" as="sourcePoint" />
            <mxPoint x="-512" y="101" as="targetPoint" />
            <Array as="points">
              <mxPoint x="-557" y="130" />
              <mxPoint x="-557" y="130" />
            </Array>
          </mxGeometry>
        </mxCell>
        <mxCell id="8gFfHAogJ4UCt75-UBTD-15" value="press login" style="endArrow=block;html=1;endSize=8;startArrow=none;startSize=14;startFill=0;edgeStyle=orthogonalEdgeStyle;align=center;verticalAlign=bottom;endFill=1;rounded=0;strokeWidth=1;" parent="8gFfHAogJ4UCt75-UBTD-1" source="8gFfHAogJ4UCt75-UBTD-12" target="8gFfHAogJ4UCt75-UBTD-10" edge="1">
          <mxGeometry y="3" relative="1" as="geometry">
            <mxPoint x="-467" y="99.5" as="sourcePoint" />
            <mxPoint x="-352.5" y="99.5" as="targetPoint" />
            <Array as="points">
              <mxPoint x="-457" y="140" />
              <mxPoint x="-457" y="140" />
            </Array>
          </mxGeometry>
        </mxCell>
        <mxCell id="8gFfHAogJ4UCt75-UBTD-16" value="retrieve data" style="endArrow=block;html=1;endSize=8;startArrow=none;startSize=14;startFill=0;edgeStyle=orthogonalEdgeStyle;align=center;verticalAlign=bottom;endFill=1;rounded=0;strokeWidth=1;" parent="8gFfHAogJ4UCt75-UBTD-1" source="8gFfHAogJ4UCt75-UBTD-10" target="8gFfHAogJ4UCt75-UBTD-8" edge="1">
          <mxGeometry y="3" relative="1" as="geometry">
            <mxPoint x="-392" y="150" as="sourcePoint" />
            <mxPoint x="-282" y="150" as="targetPoint" />
            <Array as="points">
              <mxPoint x="-307" y="150" />
              <mxPoint x="-307" y="150" />
            </Array>
          </mxGeometry>
        </mxCell>
        <mxCell id="8gFfHAogJ4UCt75-UBTD-17" value="return data" style="endArrow=open;html=1;endSize=8;startArrow=none;startSize=14;startFill=0;edgeStyle=orthogonalEdgeStyle;align=center;verticalAlign=bottom;endFill=0;rounded=0;strokeWidth=1;dashed=1;" parent="8gFfHAogJ4UCt75-UBTD-1" source="8gFfHAogJ4UCt75-UBTD-8" target="8gFfHAogJ4UCt75-UBTD-10" edge="1">
          <mxGeometry y="20" relative="1" as="geometry">
            <mxPoint x="-227" y="250" as="sourcePoint" />
            <mxPoint x="-117" y="250" as="targetPoint" />
            <Array as="points">
              <mxPoint x="-317" y="170" />
              <mxPoint x="-317" y="170" />
            </Array>
            <mxPoint as="offset" />
          </mxGeometry>
        </mxCell>
        <mxCell id="8gFfHAogJ4UCt75-UBTD-18" value="validate" style="endArrow=open;html=1;endSize=8;startArrow=none;startSize=14;startFill=0;edgeStyle=orthogonalEdgeStyle;align=center;verticalAlign=bottom;endFill=0;rounded=0;strokeWidth=1;dashed=1;" parent="8gFfHAogJ4UCt75-UBTD-1" source="8gFfHAogJ4UCt75-UBTD-10" target="8gFfHAogJ4UCt75-UBTD-12" edge="1">
          <mxGeometry y="20" relative="1" as="geometry">
            <mxPoint x="-402" y="200" as="sourcePoint" />
            <mxPoint x="-512" y="200" as="targetPoint" />
            <Array as="points">
              <mxPoint x="-447" y="200" />
              <mxPoint x="-447" y="200" />
            </Array>
            <mxPoint as="offset" />
          </mxGeometry>
        </mxCell>
        <mxCell id="8gFfHAogJ4UCt75-UBTD-23" value="display error" style="endArrow=open;html=1;endSize=8;startArrow=none;startSize=14;startFill=0;edgeStyle=orthogonalEdgeStyle;align=center;verticalAlign=bottom;endFill=0;rounded=0;strokeWidth=1;dashed=1;" parent="8gFfHAogJ4UCt75-UBTD-1" source="8gFfHAogJ4UCt75-UBTD-12" target="8gFfHAogJ4UCt75-UBTD-6" edge="1">
          <mxGeometry y="20" relative="1" as="geometry">
            <mxPoint x="-517" y="410" as="sourcePoint" />
            <mxPoint x="-627" y="410" as="targetPoint" />
            <Array as="points">
              <mxPoint x="-557" y="420" />
              <mxPoint x="-557" y="420" />
            </Array>
            <mxPoint as="offset" />
          </mxGeometry>
        </mxCell>
        <mxCell id="8gFfHAogJ4UCt75-UBTD-22" value="show dashboard" style="endArrow=open;html=1;endSize=8;startArrow=none;startSize=14;startFill=0;edgeStyle=orthogonalEdgeStyle;align=center;verticalAlign=bottom;endFill=0;rounded=0;strokeWidth=1;dashed=1;" parent="8gFfHAogJ4UCt75-UBTD-1" source="8gFfHAogJ4UCt75-UBTD-12" target="8gFfHAogJ4UCt75-UBTD-6" edge="1">
          <mxGeometry y="20" relative="1" as="geometry">
            <mxPoint x="-517" y="280" as="sourcePoint" />
            <mxPoint x="-627" y="280" as="targetPoint" />
            <Array as="points">
              <mxPoint x="-567" y="295" />
              <mxPoint x="-567" y="295" />
            </Array>
            <mxPoint as="offset" />
          </mxGeometry>
        </mxCell>
      </root>
    </mxGraphModel>
  </diagram>
  <diagram id="xjxF12ABI_jpNv5xLuTS" name="showAssets">
    <mxGraphModel dx="1835" dy="565" grid="1" gridSize="10" guides="1" tooltips="1" connect="1" arrows="1" fold="1" page="1" pageScale="1" pageWidth="827" pageHeight="1169" math="0" shadow="0">
      <root>
        <mxCell id="8WW77KF9GtoBHK48pzk1-0" />
        <mxCell id="8WW77KF9GtoBHK48pzk1-1" parent="8WW77KF9GtoBHK48pzk1-0" />
        <mxCell id="D_NZLBXaeA7b95ZZJjKF-3" value="UserDashboard" style="shape=umlLifeline;perimeter=lifelinePerimeter;whiteSpace=wrap;html=1;container=1;collapsible=0;recursiveResize=0;outlineConnect=0;" parent="8WW77KF9GtoBHK48pzk1-1" vertex="1">
          <mxGeometry x="-827" width="100" height="480" as="geometry" />
        </mxCell>
        <mxCell id="D_NZLBXaeA7b95ZZJjKF-5" value="" style="html=1;points=[];perimeter=orthogonalPerimeter;fillColor=#FFFFFF;" parent="D_NZLBXaeA7b95ZZJjKF-3" vertex="1">
          <mxGeometry x="45" y="80" width="10" height="360" as="geometry" />
        </mxCell>
        <mxCell id="D_NZLBXaeA7b95ZZJjKF-8" value="Database" style="shape=umlLifeline;perimeter=lifelinePerimeter;whiteSpace=wrap;html=1;container=1;collapsible=0;recursiveResize=0;outlineConnect=0;fillColor=#FFFFFF;" parent="8WW77KF9GtoBHK48pzk1-1" vertex="1">
          <mxGeometry x="-510" width="100" height="160" as="geometry" />
        </mxCell>
        <mxCell id="D_NZLBXaeA7b95ZZJjKF-9" value="" style="html=1;points=[];perimeter=orthogonalPerimeter;" parent="D_NZLBXaeA7b95ZZJjKF-8" vertex="1">
          <mxGeometry x="45" y="100" width="10" height="20" as="geometry" />
        </mxCell>
        <mxCell id="D_NZLBXaeA7b95ZZJjKF-10" value="AssetService" style="shape=umlLifeline;perimeter=lifelinePerimeter;whiteSpace=wrap;html=1;container=1;collapsible=0;recursiveResize=0;outlineConnect=0;fillColor=#FFFFFF;" parent="8WW77KF9GtoBHK48pzk1-1" vertex="1">
          <mxGeometry x="-643" width="96" height="480" as="geometry" />
        </mxCell>
        <mxCell id="113iGPgi2Vgeu7rQ-MCG-3" value="alt" style="shape=umlFrame;tabWidth=110;tabHeight=30;tabPosition=left;html=1;boundedLbl=1;labelInHeader=1;width=70;height=30;" vertex="1" parent="D_NZLBXaeA7b95ZZJjKF-10">
          <mxGeometry x="-110" y="220" width="310" height="190" as="geometry" />
        </mxCell>
        <mxCell id="113iGPgi2Vgeu7rQ-MCG-4" value="asset has bid/ask" style="text" vertex="1" parent="113iGPgi2Vgeu7rQ-MCG-3">
          <mxGeometry width="100" height="20" relative="1" as="geometry">
            <mxPoint x="20" y="40" as="offset" />
          </mxGeometry>
        </mxCell>
        <mxCell id="113iGPgi2Vgeu7rQ-MCG-5" value="asset has no bid or ask" style="line;strokeWidth=1;dashed=1;labelPosition=center;verticalLabelPosition=bottom;align=left;verticalAlign=top;spacingLeft=20;spacingTop=15;" vertex="1" parent="113iGPgi2Vgeu7rQ-MCG-3">
          <mxGeometry y="95" width="310" height="7.6000000000000005" as="geometry" />
        </mxCell>
        <mxCell id="D_NZLBXaeA7b95ZZJjKF-0" value="loop" style="shape=umlFrame;tabWidth=110;tabHeight=30;tabPosition=left;html=1;boundedLbl=1;labelInHeader=1;width=67;height=30;fillColor=#FFFFFF;" parent="D_NZLBXaeA7b95ZZJjKF-10" vertex="1">
          <mxGeometry x="-120" y="160" width="330" height="260" as="geometry" />
        </mxCell>
        <mxCell id="D_NZLBXaeA7b95ZZJjKF-11" value="" style="html=1;points=[];perimeter=orthogonalPerimeter;fillColor=#FFFFFF;" parent="D_NZLBXaeA7b95ZZJjKF-10" vertex="1">
          <mxGeometry x="43" y="90" width="10" height="350" as="geometry" />
        </mxCell>
        <mxCell id="113iGPgi2Vgeu7rQ-MCG-1" value="test product" style="endArrow=none;html=1;endSize=8;startArrow=block;startSize=8;startFill=1;edgeStyle=orthogonalEdgeStyle;align=center;verticalAlign=bottom;endFill=0;rounded=0;strokeWidth=1;curved=1;" edge="1" parent="D_NZLBXaeA7b95ZZJjKF-10" source="D_NZLBXaeA7b95ZZJjKF-11" target="D_NZLBXaeA7b95ZZJjKF-11">
          <mxGeometry x="-0.25" y="-42" relative="1" as="geometry">
            <mxPoint x="55" y="210" as="sourcePoint" />
            <mxPoint x="55" y="190" as="targetPoint" />
            <Array as="points">
              <mxPoint x="85" y="210" />
              <mxPoint x="85" y="190" />
            </Array>
            <mxPoint as="offset" />
          </mxGeometry>
        </mxCell>
        <mxCell id="113iGPgi2Vgeu7rQ-MCG-6" value="&lt;div&gt;set bid and ask to&lt;/div&gt;&lt;div&gt;actual values&lt;br&gt;&lt;/div&gt;" style="endArrow=none;html=1;endSize=8;startArrow=block;startSize=8;startFill=1;edgeStyle=orthogonalEdgeStyle;align=center;verticalAlign=bottom;endFill=0;rounded=0;strokeWidth=1;curved=1;" edge="1" parent="D_NZLBXaeA7b95ZZJjKF-10" source="D_NZLBXaeA7b95ZZJjKF-11" target="D_NZLBXaeA7b95ZZJjKF-11">
          <mxGeometry x="-0.2273" y="-47" relative="1" as="geometry">
            <mxPoint x="57" y="280" as="sourcePoint" />
            <mxPoint x="57" y="260" as="targetPoint" />
            <Array as="points">
              <mxPoint x="87" y="280" />
              <mxPoint x="87" y="260" />
            </Array>
            <mxPoint x="-1" y="10" as="offset" />
          </mxGeometry>
        </mxCell>
        <mxCell id="113iGPgi2Vgeu7rQ-MCG-7" value="&lt;div&gt;set bid and ask to&lt;/div&gt;&lt;div&gt;blank values&lt;br&gt;&lt;/div&gt;" style="endArrow=none;html=1;endSize=8;startArrow=block;startSize=8;startFill=1;edgeStyle=orthogonalEdgeStyle;align=center;verticalAlign=bottom;endFill=0;rounded=0;strokeWidth=1;curved=1;" edge="1" parent="D_NZLBXaeA7b95ZZJjKF-10" source="D_NZLBXaeA7b95ZZJjKF-11" target="D_NZLBXaeA7b95ZZJjKF-11">
          <mxGeometry x="-0.2271" y="-49" relative="1" as="geometry">
            <mxPoint x="57" y="360" as="sourcePoint" />
            <mxPoint x="57" y="340" as="targetPoint" />
            <Array as="points">
              <mxPoint x="89" y="360" />
              <mxPoint x="89" y="340" />
            </Array>
            <mxPoint x="-1" y="10" as="offset" />
          </mxGeometry>
        </mxCell>
        <mxCell id="D_NZLBXaeA7b95ZZJjKF-14" value="get products" style="endArrow=block;html=1;endSize=8;startArrow=none;startSize=14;startFill=0;edgeStyle=orthogonalEdgeStyle;align=center;verticalAlign=bottom;endFill=1;rounded=0;strokeWidth=1;" parent="8WW77KF9GtoBHK48pzk1-1" source="D_NZLBXaeA7b95ZZJjKF-5" target="D_NZLBXaeA7b95ZZJjKF-11" edge="1">
          <mxGeometry y="3" relative="1" as="geometry">
            <mxPoint x="-664" y="49.5" as="sourcePoint" />
            <mxPoint x="-549.5" y="49.5" as="targetPoint" />
            <Array as="points">
              <mxPoint x="-654" y="90" />
              <mxPoint x="-654" y="90" />
            </Array>
          </mxGeometry>
        </mxCell>
        <mxCell id="D_NZLBXaeA7b95ZZJjKF-15" value="retrieve data" style="endArrow=block;html=1;endSize=8;startArrow=none;startSize=14;startFill=0;edgeStyle=orthogonalEdgeStyle;align=center;verticalAlign=bottom;endFill=1;rounded=0;strokeWidth=1;" parent="8WW77KF9GtoBHK48pzk1-1" source="D_NZLBXaeA7b95ZZJjKF-11" target="D_NZLBXaeA7b95ZZJjKF-9" edge="1">
          <mxGeometry y="3" relative="1" as="geometry">
            <mxPoint x="-589" y="100" as="sourcePoint" />
            <mxPoint x="-479" y="100" as="targetPoint" />
            <Array as="points">
              <mxPoint x="-504" y="100" />
              <mxPoint x="-504" y="100" />
            </Array>
          </mxGeometry>
        </mxCell>
        <mxCell id="D_NZLBXaeA7b95ZZJjKF-16" value="return data" style="endArrow=open;html=1;endSize=8;startArrow=none;startSize=14;startFill=0;edgeStyle=orthogonalEdgeStyle;align=center;verticalAlign=bottom;endFill=0;rounded=0;strokeWidth=1;dashed=1;" parent="8WW77KF9GtoBHK48pzk1-1" source="D_NZLBXaeA7b95ZZJjKF-9" target="D_NZLBXaeA7b95ZZJjKF-11" edge="1">
          <mxGeometry y="20" relative="1" as="geometry">
            <mxPoint x="-424" y="200" as="sourcePoint" />
            <mxPoint x="-314" y="200" as="targetPoint" />
            <Array as="points">
              <mxPoint x="-514" y="120" />
              <mxPoint x="-514" y="120" />
            </Array>
            <mxPoint as="offset" />
          </mxGeometry>
        </mxCell>
        <mxCell id="113iGPgi2Vgeu7rQ-MCG-8" value="display products" style="endArrow=open;html=1;endSize=8;startArrow=none;startSize=14;startFill=0;edgeStyle=orthogonalEdgeStyle;align=center;verticalAlign=bottom;endFill=0;rounded=0;strokeWidth=1;dashed=1;" edge="1" parent="8WW77KF9GtoBHK48pzk1-1" source="D_NZLBXaeA7b95ZZJjKF-11" target="D_NZLBXaeA7b95ZZJjKF-5">
          <mxGeometry y="20" relative="1" as="geometry">
            <mxPoint x="-557" y="450" as="sourcePoint" />
            <mxPoint x="-763" y="450" as="targetPoint" />
            <Array as="points">
              <mxPoint x="-717" y="440" />
              <mxPoint x="-717" y="440" />
            </Array>
            <mxPoint as="offset" />
          </mxGeometry>
        </mxCell>
      </root>
    </mxGraphModel>
  </diagram>
  <diagram id="ugkDHhZZtD4tbyfAlOhy" name="placeOrder">
    <mxGraphModel dx="1209" dy="678" grid="1" gridSize="10" guides="1" tooltips="1" connect="1" arrows="1" fold="1" page="1" pageScale="1" pageWidth="827" pageHeight="1169" math="0" shadow="0">
      <root>
        <mxCell id="EpX3gvrzYpsR1ZUKO0S8-0" />
        <mxCell id="EpX3gvrzYpsR1ZUKO0S8-1" parent="EpX3gvrzYpsR1ZUKO0S8-0" />
        <mxCell id="mO4tTKhicTdVWjRmCIc5-4" value="User" style="swimlane;startSize=20;" vertex="1" parent="EpX3gvrzYpsR1ZUKO0S8-1">
          <mxGeometry width="200" height="350" as="geometry" />
        </mxCell>
        <mxCell id="mO4tTKhicTdVWjRmCIc5-1" value="place Order" style="html=1;align=center;verticalAlign=middle;rounded=1;absoluteArcSize=1;arcSize=10;dashed=0;" vertex="1" parent="mO4tTKhicTdVWjRmCIc5-4">
          <mxGeometry x="30" y="90" width="140" height="40" as="geometry" />
        </mxCell>
        <mxCell id="mO4tTKhicTdVWjRmCIc5-8" style="edgeStyle=orthogonalEdgeStyle;curved=1;rounded=0;orthogonalLoop=1;jettySize=auto;html=1;startArrow=none;startFill=0;endArrow=blockThin;endFill=1;startSize=8;" edge="1" parent="mO4tTKhicTdVWjRmCIc5-4" source="mO4tTKhicTdVWjRmCIc5-0" target="mO4tTKhicTdVWjRmCIc5-1">
          <mxGeometry relative="1" as="geometry" />
        </mxCell>
        <mxCell id="mO4tTKhicTdVWjRmCIc5-0" value="" style="ellipse;fillColor=#000000;strokeColor=none;" vertex="1" parent="mO4tTKhicTdVWjRmCIc5-4">
          <mxGeometry x="85" y="40" width="30" height="30" as="geometry" />
        </mxCell>
        <mxCell id="mO4tTKhicTdVWjRmCIc5-5" value="MatchingEngine" style="swimlane;startSize=20;" vertex="1" parent="EpX3gvrzYpsR1ZUKO0S8-1">
          <mxGeometry x="200" width="200" height="350" as="geometry" />
        </mxCell>
        <mxCell id="mO4tTKhicTdVWjRmCIc5-14" style="edgeStyle=elbowEdgeStyle;rounded=0;orthogonalLoop=1;jettySize=auto;html=1;startArrow=none;startFill=0;endArrow=blockThin;endFill=1;startSize=8;" edge="1" parent="mO4tTKhicTdVWjRmCIc5-5" source="mO4tTKhicTdVWjRmCIc5-9" target="mO4tTKhicTdVWjRmCIc5-26">
          <mxGeometry relative="1" as="geometry">
            <mxPoint x="100.33333333333348" y="170.33333333333348" as="targetPoint" />
          </mxGeometry>
        </mxCell>
        <mxCell id="mO4tTKhicTdVWjRmCIc5-9" value="match Order" style="html=1;align=center;verticalAlign=middle;rounded=1;absoluteArcSize=1;arcSize=10;dashed=0;" vertex="1" parent="mO4tTKhicTdVWjRmCIc5-5">
          <mxGeometry x="30" y="90" width="140" height="40" as="geometry" />
        </mxCell>
        <mxCell id="mO4tTKhicTdVWjRmCIc5-15" value="spread crossed" style="text;html=1;strokeColor=none;fillColor=none;align=center;verticalAlign=middle;whiteSpace=wrap;rounded=0;" vertex="1" parent="mO4tTKhicTdVWjRmCIc5-5">
          <mxGeometry x="10" y="170" width="70" height="30" as="geometry" />
        </mxCell>
        <mxCell id="mO4tTKhicTdVWjRmCIc5-34" style="edgeStyle=elbowEdgeStyle;rounded=0;orthogonalLoop=1;jettySize=auto;html=1;startArrow=none;startFill=0;endArrow=blockThin;endFill=1;startSize=8;" edge="1" parent="mO4tTKhicTdVWjRmCIc5-5" source="mO4tTKhicTdVWjRmCIc5-26" target="mO4tTKhicTdVWjRmCIc5-33">
          <mxGeometry relative="1" as="geometry" />
        </mxCell>
        <mxCell id="mO4tTKhicTdVWjRmCIc5-35" value="False" style="edgeLabel;html=1;align=center;verticalAlign=middle;resizable=0;points=[];" vertex="1" connectable="0" parent="mO4tTKhicTdVWjRmCIc5-34">
          <mxGeometry x="-0.4463" y="1" relative="1" as="geometry">
            <mxPoint as="offset" />
          </mxGeometry>
        </mxCell>
        <mxCell id="mO4tTKhicTdVWjRmCIc5-26" value="" style="rhombus;" vertex="1" parent="mO4tTKhicTdVWjRmCIc5-5">
          <mxGeometry x="85" y="170" width="30" height="30" as="geometry" />
        </mxCell>
        <mxCell id="mO4tTKhicTdVWjRmCIc5-41" style="edgeStyle=elbowEdgeStyle;rounded=0;orthogonalLoop=1;jettySize=auto;html=1;startArrow=none;startFill=0;endArrow=blockThin;endFill=1;startSize=8;" edge="1" parent="mO4tTKhicTdVWjRmCIc5-5" source="mO4tTKhicTdVWjRmCIc5-33" target="mO4tTKhicTdVWjRmCIc5-40">
          <mxGeometry relative="1" as="geometry" />
        </mxCell>
        <mxCell id="mO4tTKhicTdVWjRmCIc5-33" value="place Order in Book" style="html=1;align=center;verticalAlign=middle;rounded=1;absoluteArcSize=1;arcSize=10;dashed=0;" vertex="1" parent="mO4tTKhicTdVWjRmCIc5-5">
          <mxGeometry x="30" y="240" width="140" height="40" as="geometry" />
        </mxCell>
        <mxCell id="mO4tTKhicTdVWjRmCIc5-40" value="" style="ellipse;html=1;shape=endState;fillColor=#000000;strokeColor=#000000;" vertex="1" parent="mO4tTKhicTdVWjRmCIc5-5">
          <mxGeometry x="85" y="300" width="30" height="30" as="geometry" />
        </mxCell>
        <mxCell id="mO4tTKhicTdVWjRmCIc5-6" value="DataStore" style="swimlane;startSize=20;" vertex="1" parent="EpX3gvrzYpsR1ZUKO0S8-1">
          <mxGeometry x="400" width="200" height="350" as="geometry" />
        </mxCell>
        <mxCell id="mO4tTKhicTdVWjRmCIc5-31" style="edgeStyle=elbowEdgeStyle;rounded=0;orthogonalLoop=1;jettySize=auto;html=1;startArrow=none;startFill=0;endArrow=blockThin;endFill=1;startSize=8;" edge="1" parent="mO4tTKhicTdVWjRmCIc5-6" source="mO4tTKhicTdVWjRmCIc5-23" target="mO4tTKhicTdVWjRmCIc5-28">
          <mxGeometry relative="1" as="geometry" />
        </mxCell>
        <mxCell id="mO4tTKhicTdVWjRmCIc5-23" value="place Trade in Book" style="html=1;align=center;verticalAlign=middle;rounded=1;absoluteArcSize=1;arcSize=10;dashed=0;" vertex="1" parent="mO4tTKhicTdVWjRmCIc5-6">
          <mxGeometry x="30" y="165" width="140" height="40" as="geometry" />
        </mxCell>
        <mxCell id="mO4tTKhicTdVWjRmCIc5-38" style="edgeStyle=elbowEdgeStyle;rounded=0;orthogonalLoop=1;jettySize=auto;html=1;startArrow=none;startFill=0;endArrow=blockThin;endFill=1;startSize=8;" edge="1" parent="mO4tTKhicTdVWjRmCIc5-6" source="mO4tTKhicTdVWjRmCIc5-28" target="mO4tTKhicTdVWjRmCIc5-37">
          <mxGeometry relative="1" as="geometry" />
        </mxCell>
        <mxCell id="mO4tTKhicTdVWjRmCIc5-39" value="True" style="edgeLabel;html=1;align=center;verticalAlign=middle;resizable=0;points=[];" vertex="1" connectable="0" parent="mO4tTKhicTdVWjRmCIc5-38">
          <mxGeometry x="-0.4641" y="-2" relative="1" as="geometry">
            <mxPoint as="offset" />
          </mxGeometry>
        </mxCell>
        <mxCell id="mO4tTKhicTdVWjRmCIc5-28" value="" style="rhombus;" vertex="1" parent="mO4tTKhicTdVWjRmCIc5-6">
          <mxGeometry x="85" y="240" width="30" height="30" as="geometry" />
        </mxCell>
        <mxCell id="mO4tTKhicTdVWjRmCIc5-29" value="order was filled " style="text;html=1;strokeColor=none;fillColor=none;align=center;verticalAlign=middle;whiteSpace=wrap;rounded=0;" vertex="1" parent="mO4tTKhicTdVWjRmCIc5-6">
          <mxGeometry x="15" y="240" width="70" height="30" as="geometry" />
        </mxCell>
        <mxCell id="mO4tTKhicTdVWjRmCIc5-37" value="" style="ellipse;html=1;shape=endState;fillColor=#000000;strokeColor=#000000;" vertex="1" parent="mO4tTKhicTdVWjRmCIc5-6">
          <mxGeometry x="85" y="300" width="30" height="30" as="geometry" />
        </mxCell>
        <mxCell id="mO4tTKhicTdVWjRmCIc5-10" style="edgeStyle=orthogonalEdgeStyle;curved=1;rounded=0;orthogonalLoop=1;jettySize=auto;html=1;startArrow=none;startFill=0;endArrow=blockThin;endFill=1;startSize=8;" edge="1" parent="EpX3gvrzYpsR1ZUKO0S8-1" source="mO4tTKhicTdVWjRmCIc5-1" target="mO4tTKhicTdVWjRmCIc5-9">
          <mxGeometry relative="1" as="geometry" />
        </mxCell>
        <mxCell id="mO4tTKhicTdVWjRmCIc5-27" style="edgeStyle=elbowEdgeStyle;rounded=0;orthogonalLoop=1;jettySize=auto;html=1;startArrow=none;startFill=0;endArrow=blockThin;endFill=1;startSize=8;" edge="1" parent="EpX3gvrzYpsR1ZUKO0S8-1" source="mO4tTKhicTdVWjRmCIc5-26" target="mO4tTKhicTdVWjRmCIc5-23">
          <mxGeometry relative="1" as="geometry" />
        </mxCell>
        <mxCell id="mO4tTKhicTdVWjRmCIc5-36" value="True" style="edgeLabel;html=1;align=center;verticalAlign=middle;resizable=0;points=[];" vertex="1" connectable="0" parent="mO4tTKhicTdVWjRmCIc5-27">
          <mxGeometry x="-0.2116" y="-2" relative="1" as="geometry">
            <mxPoint as="offset" />
          </mxGeometry>
        </mxCell>
        <mxCell id="mO4tTKhicTdVWjRmCIc5-30" style="edgeStyle=elbowEdgeStyle;rounded=0;orthogonalLoop=1;jettySize=auto;html=1;startArrow=none;startFill=0;endArrow=blockThin;endFill=1;startSize=8;" edge="1" parent="EpX3gvrzYpsR1ZUKO0S8-1" source="mO4tTKhicTdVWjRmCIc5-28" target="mO4tTKhicTdVWjRmCIc5-9">
          <mxGeometry relative="1" as="geometry">
            <Array as="points">
              <mxPoint x="590" y="170" />
            </Array>
          </mxGeometry>
        </mxCell>
        <mxCell id="mO4tTKhicTdVWjRmCIc5-32" value="False" style="edgeLabel;html=1;align=center;verticalAlign=middle;resizable=0;points=[];" vertex="1" connectable="0" parent="mO4tTKhicTdVWjRmCIc5-30">
          <mxGeometry x="-0.8129" y="-2" relative="1" as="geometry">
            <mxPoint as="offset" />
          </mxGeometry>
        </mxCell>
      </root>
    </mxGraphModel>
  </diagram>
  <diagram id="f-_-G36A0sFQuwqdKux7" name="deleteOrder">
    <mxGraphModel dx="1008" dy="565" grid="1" gridSize="10" guides="1" tooltips="1" connect="1" arrows="1" fold="1" page="1" pageScale="1" pageWidth="827" pageHeight="1169" math="0" shadow="0">
      <root>
        <mxCell id="6WTzZx2_kj0VuxMaJr-b-0" />
        <mxCell id="6WTzZx2_kj0VuxMaJr-b-1" parent="6WTzZx2_kj0VuxMaJr-b-0" />
        <mxCell id="46IvJyalegZ86d1xHiHa-0" value="User" style="swimlane;startSize=20;" vertex="1" parent="6WTzZx2_kj0VuxMaJr-b-1">
          <mxGeometry width="200" height="350" as="geometry" />
        </mxCell>
        <mxCell id="46IvJyalegZ86d1xHiHa-1" value="deletes Order" style="html=1;align=center;verticalAlign=middle;rounded=1;absoluteArcSize=1;arcSize=10;dashed=0;" vertex="1" parent="46IvJyalegZ86d1xHiHa-0">
          <mxGeometry x="30" y="90" width="140" height="40" as="geometry" />
        </mxCell>
        <mxCell id="46IvJyalegZ86d1xHiHa-2" style="edgeStyle=orthogonalEdgeStyle;curved=1;rounded=0;orthogonalLoop=1;jettySize=auto;html=1;startArrow=none;startFill=0;endArrow=blockThin;endFill=1;startSize=8;" edge="1" parent="46IvJyalegZ86d1xHiHa-0" source="46IvJyalegZ86d1xHiHa-3" target="46IvJyalegZ86d1xHiHa-1">
          <mxGeometry relative="1" as="geometry" />
        </mxCell>
        <mxCell id="46IvJyalegZ86d1xHiHa-3" value="" style="ellipse;fillColor=#000000;strokeColor=none;" vertex="1" parent="46IvJyalegZ86d1xHiHa-0">
          <mxGeometry x="85" y="40" width="30" height="30" as="geometry" />
        </mxCell>
        <mxCell id="46IvJyalegZ86d1xHiHa-4" value="MatchingEngine" style="swimlane;startSize=20;" vertex="1" parent="6WTzZx2_kj0VuxMaJr-b-1">
          <mxGeometry x="200" width="400" height="350" as="geometry" />
        </mxCell>
        <mxCell id="46IvJyalegZ86d1xHiHa-5" style="edgeStyle=elbowEdgeStyle;rounded=0;orthogonalLoop=1;jettySize=auto;html=1;startArrow=none;startFill=0;endArrow=blockThin;endFill=1;startSize=8;" edge="1" parent="46IvJyalegZ86d1xHiHa-4" source="46IvJyalegZ86d1xHiHa-6" target="46IvJyalegZ86d1xHiHa-10">
          <mxGeometry relative="1" as="geometry">
            <mxPoint x="100.33333333333348" y="170.33333333333348" as="targetPoint" />
          </mxGeometry>
        </mxCell>
        <mxCell id="46IvJyalegZ86d1xHiHa-6" value="search Order" style="html=1;align=center;verticalAlign=middle;rounded=1;absoluteArcSize=1;arcSize=10;dashed=0;" vertex="1" parent="46IvJyalegZ86d1xHiHa-4">
          <mxGeometry x="30" y="90" width="140" height="40" as="geometry" />
        </mxCell>
        <mxCell id="46IvJyalegZ86d1xHiHa-8" style="edgeStyle=elbowEdgeStyle;rounded=0;orthogonalLoop=1;jettySize=auto;html=1;startArrow=none;startFill=0;endArrow=blockThin;endFill=1;startSize=8;" edge="1" parent="46IvJyalegZ86d1xHiHa-4" source="46IvJyalegZ86d1xHiHa-10" target="46IvJyalegZ86d1xHiHa-12">
          <mxGeometry relative="1" as="geometry" />
        </mxCell>
        <mxCell id="46IvJyalegZ86d1xHiHa-9" value="True" style="edgeLabel;html=1;align=center;verticalAlign=middle;resizable=0;points=[];" vertex="1" connectable="0" parent="46IvJyalegZ86d1xHiHa-8">
          <mxGeometry x="-0.4463" y="1" relative="1" as="geometry">
            <mxPoint x="-1" as="offset" />
          </mxGeometry>
        </mxCell>
        <mxCell id="CtSZNNZjy85RBbeWBmyH-0" style="edgeStyle=elbowEdgeStyle;rounded=0;orthogonalLoop=1;jettySize=auto;html=1;startArrow=none;startFill=0;endArrow=blockThin;endFill=1;startSize=8;" edge="1" parent="46IvJyalegZ86d1xHiHa-4" source="46IvJyalegZ86d1xHiHa-10" target="46IvJyalegZ86d1xHiHa-27">
          <mxGeometry relative="1" as="geometry" />
        </mxCell>
        <mxCell id="CtSZNNZjy85RBbeWBmyH-1" value="False" style="edgeLabel;html=1;align=center;verticalAlign=middle;resizable=0;points=[];" vertex="1" connectable="0" parent="CtSZNNZjy85RBbeWBmyH-0">
          <mxGeometry x="-0.2952" relative="1" as="geometry">
            <mxPoint as="offset" />
          </mxGeometry>
        </mxCell>
        <mxCell id="46IvJyalegZ86d1xHiHa-10" value="" style="rhombus;" vertex="1" parent="46IvJyalegZ86d1xHiHa-4">
          <mxGeometry x="85" y="165" width="30" height="30" as="geometry" />
        </mxCell>
        <mxCell id="46IvJyalegZ86d1xHiHa-11" style="edgeStyle=elbowEdgeStyle;rounded=0;orthogonalLoop=1;jettySize=auto;html=1;startArrow=none;startFill=0;endArrow=blockThin;endFill=1;startSize=8;" edge="1" parent="46IvJyalegZ86d1xHiHa-4" source="46IvJyalegZ86d1xHiHa-12" target="46IvJyalegZ86d1xHiHa-13">
          <mxGeometry relative="1" as="geometry" />
        </mxCell>
        <mxCell id="46IvJyalegZ86d1xHiHa-12" value="&lt;div&gt;remove Order in Book&lt;/div&gt;" style="html=1;align=center;verticalAlign=middle;rounded=1;absoluteArcSize=1;arcSize=10;dashed=0;" vertex="1" parent="46IvJyalegZ86d1xHiHa-4">
          <mxGeometry x="30" y="240" width="140" height="40" as="geometry" />
        </mxCell>
        <mxCell id="46IvJyalegZ86d1xHiHa-13" value="" style="ellipse;html=1;shape=endState;fillColor=#000000;strokeColor=#000000;" vertex="1" parent="46IvJyalegZ86d1xHiHa-4">
          <mxGeometry x="85" y="300" width="30" height="30" as="geometry" />
        </mxCell>
        <mxCell id="CtSZNNZjy85RBbeWBmyH-2" style="edgeStyle=elbowEdgeStyle;rounded=0;orthogonalLoop=1;jettySize=auto;html=1;startArrow=none;startFill=0;endArrow=blockThin;endFill=1;startSize=8;" edge="1" parent="46IvJyalegZ86d1xHiHa-4" source="46IvJyalegZ86d1xHiHa-27" target="46IvJyalegZ86d1xHiHa-13">
          <mxGeometry relative="1" as="geometry">
            <Array as="points">
              <mxPoint x="290" y="230" />
            </Array>
          </mxGeometry>
        </mxCell>
        <mxCell id="46IvJyalegZ86d1xHiHa-27" value="return Exception" style="html=1;align=center;verticalAlign=middle;rounded=1;absoluteArcSize=1;arcSize=10;dashed=0;" vertex="1" parent="46IvJyalegZ86d1xHiHa-4">
          <mxGeometry x="220" y="160" width="140" height="40" as="geometry" />
        </mxCell>
        <mxCell id="46IvJyalegZ86d1xHiHa-22" style="edgeStyle=orthogonalEdgeStyle;curved=1;rounded=0;orthogonalLoop=1;jettySize=auto;html=1;startArrow=none;startFill=0;endArrow=blockThin;endFill=1;startSize=8;" edge="1" parent="6WTzZx2_kj0VuxMaJr-b-1" source="46IvJyalegZ86d1xHiHa-1" target="46IvJyalegZ86d1xHiHa-6">
          <mxGeometry relative="1" as="geometry" />
        </mxCell>
      </root>
    </mxGraphModel>
  </diagram>
  <diagram id="Z6mjEUnxcjcNvWKuJne8" name="matchOrders">
    <mxGraphModel dx="1209" dy="678" grid="1" gridSize="10" guides="1" tooltips="1" connect="1" arrows="1" fold="1" page="1" pageScale="1" pageWidth="827" pageHeight="1169" math="0" shadow="0">
      <root>
        <mxCell id="Wo4ql_vvyY8mq4_1g-8z-0" />
        <mxCell id="Wo4ql_vvyY8mq4_1g-8z-1" parent="Wo4ql_vvyY8mq4_1g-8z-0" />
      </root>
    </mxGraphModel>
  </diagram>
  <diagram id="v5h06O75B0wmkoPX0um9" name="batchOrders">
    <mxGraphModel dx="2062" dy="1104" grid="1" gridSize="10" guides="1" tooltips="1" connect="1" arrows="1" fold="1" page="1" pageScale="1" pageWidth="827" pageHeight="1169" math="0" shadow="0">
      <root>
        <mxCell id="teNXOx68ZFzeSSq0cVMx-0" />
        <mxCell id="teNXOx68ZFzeSSq0cVMx-1" parent="teNXOx68ZFzeSSq0cVMx-0" />
      </root>
    </mxGraphModel>
  </diagram>
  <diagram id="2zE1O69jCks7enDBJDto" name="ER">
    <mxGraphModel dx="1718" dy="920" grid="1" gridSize="10" guides="1" tooltips="1" connect="1" arrows="1" fold="1" page="1" pageScale="1" pageWidth="827" pageHeight="1169" math="0" shadow="0">
      <root>
        <mxCell id="yF1DkwvLkhe0ymyQQ4cb-0" />
        <mxCell id="yF1DkwvLkhe0ymyQQ4cb-1" parent="yF1DkwvLkhe0ymyQQ4cb-0" />
        <mxCell id="yF1DkwvLkhe0ymyQQ4cb-60" style="edgeStyle=elbowEdgeStyle;rounded=0;orthogonalLoop=1;jettySize=auto;html=1;startArrow=ERzeroToMany;startFill=0;endArrow=ERmandOne;endFill=0;startSize=8;endSize=8;" edge="1" parent="yF1DkwvLkhe0ymyQQ4cb-1" source="yF1DkwvLkhe0ymyQQ4cb-27" target="yF1DkwvLkhe0ymyQQ4cb-47">
          <mxGeometry relative="1" as="geometry" />
        </mxCell>
        <mxCell id="yF1DkwvLkhe0ymyQQ4cb-27" value="Order" style="shape=table;startSize=30;container=1;collapsible=1;childLayout=tableLayout;fixedRows=1;rowLines=0;fontStyle=1;align=center;resizeLast=1;" vertex="1" parent="yF1DkwvLkhe0ymyQQ4cb-1">
          <mxGeometry y="180" width="200" height="220" as="geometry" />
        </mxCell>
        <mxCell id="yF1DkwvLkhe0ymyQQ4cb-28" value="" style="shape=partialRectangle;collapsible=0;dropTarget=0;pointerEvents=0;fillColor=none;top=0;left=0;bottom=0;right=0;points=[[0,0.5],[1,0.5]];portConstraint=eastwest;" vertex="1" parent="yF1DkwvLkhe0ymyQQ4cb-27">
          <mxGeometry y="30" width="200" height="30" as="geometry" />
        </mxCell>
        <mxCell id="yF1DkwvLkhe0ymyQQ4cb-29" value="PK" style="shape=partialRectangle;connectable=0;fillColor=none;top=0;left=0;bottom=0;right=0;fontStyle=1;overflow=hidden;" vertex="1" parent="yF1DkwvLkhe0ymyQQ4cb-28">
          <mxGeometry width="30" height="30" as="geometry">
            <mxRectangle width="30" height="30" as="alternateBounds" />
          </mxGeometry>
        </mxCell>
        <mxCell id="yF1DkwvLkhe0ymyQQ4cb-30" value="orderId:String" style="shape=partialRectangle;connectable=0;fillColor=none;top=0;left=0;bottom=0;right=0;align=left;spacingLeft=6;fontStyle=5;overflow=hidden;" vertex="1" parent="yF1DkwvLkhe0ymyQQ4cb-28">
          <mxGeometry x="30" width="170" height="30" as="geometry">
            <mxRectangle width="170" height="30" as="alternateBounds" />
          </mxGeometry>
        </mxCell>
        <mxCell id="yF1DkwvLkhe0ymyQQ4cb-31" value="" style="shape=partialRectangle;collapsible=0;dropTarget=0;pointerEvents=0;fillColor=none;top=0;left=0;bottom=1;right=0;points=[[0,0.5],[1,0.5]];portConstraint=eastwest;" vertex="1" parent="yF1DkwvLkhe0ymyQQ4cb-27">
          <mxGeometry y="60" width="200" height="30" as="geometry" />
        </mxCell>
        <mxCell id="yF1DkwvLkhe0ymyQQ4cb-32" value="" style="shape=partialRectangle;connectable=0;fillColor=none;top=0;left=0;bottom=0;right=0;fontStyle=1;overflow=hidden;" vertex="1" parent="yF1DkwvLkhe0ymyQQ4cb-31">
          <mxGeometry width="30" height="30" as="geometry">
            <mxRectangle width="30" height="30" as="alternateBounds" />
          </mxGeometry>
        </mxCell>
        <mxCell id="yF1DkwvLkhe0ymyQQ4cb-33" value="customerId:String" style="shape=partialRectangle;connectable=0;fillColor=none;top=0;left=0;bottom=0;right=0;align=left;spacingLeft=6;fontStyle=5;overflow=hidden;" vertex="1" parent="yF1DkwvLkhe0ymyQQ4cb-31">
          <mxGeometry x="30" width="170" height="30" as="geometry">
            <mxRectangle width="170" height="30" as="alternateBounds" />
          </mxGeometry>
        </mxCell>
        <mxCell id="yF1DkwvLkhe0ymyQQ4cb-44" style="shape=partialRectangle;collapsible=0;dropTarget=0;pointerEvents=0;fillColor=none;top=0;left=0;bottom=0;right=0;points=[[0,0.5],[1,0.5]];portConstraint=eastwest;" vertex="1" parent="yF1DkwvLkhe0ymyQQ4cb-27">
          <mxGeometry y="90" width="200" height="30" as="geometry" />
        </mxCell>
        <mxCell id="yF1DkwvLkhe0ymyQQ4cb-45" style="shape=partialRectangle;connectable=0;fillColor=none;top=0;left=0;bottom=0;right=0;editable=1;overflow=hidden;" vertex="1" parent="yF1DkwvLkhe0ymyQQ4cb-44">
          <mxGeometry width="30" height="30" as="geometry">
            <mxRectangle width="30" height="30" as="alternateBounds" />
          </mxGeometry>
        </mxCell>
        <mxCell id="yF1DkwvLkhe0ymyQQ4cb-46" value="timestamp:Timestamp" style="shape=partialRectangle;connectable=0;fillColor=none;top=0;left=0;bottom=0;right=0;align=left;spacingLeft=6;overflow=hidden;" vertex="1" parent="yF1DkwvLkhe0ymyQQ4cb-44">
          <mxGeometry x="30" width="170" height="30" as="geometry">
            <mxRectangle width="170" height="30" as="alternateBounds" />
          </mxGeometry>
        </mxCell>
        <mxCell id="yF1DkwvLkhe0ymyQQ4cb-34" value="" style="shape=partialRectangle;collapsible=0;dropTarget=0;pointerEvents=0;fillColor=none;top=0;left=0;bottom=0;right=0;points=[[0,0.5],[1,0.5]];portConstraint=eastwest;" vertex="1" parent="yF1DkwvLkhe0ymyQQ4cb-27">
          <mxGeometry y="120" width="200" height="30" as="geometry" />
        </mxCell>
        <mxCell id="yF1DkwvLkhe0ymyQQ4cb-35" value="" style="shape=partialRectangle;connectable=0;fillColor=none;top=0;left=0;bottom=0;right=0;editable=1;overflow=hidden;" vertex="1" parent="yF1DkwvLkhe0ymyQQ4cb-34">
          <mxGeometry width="30" height="30" as="geometry">
            <mxRectangle width="30" height="30" as="alternateBounds" />
          </mxGeometry>
        </mxCell>
        <mxCell id="yF1DkwvLkhe0ymyQQ4cb-36" value="side:String" style="shape=partialRectangle;connectable=0;fillColor=none;top=0;left=0;bottom=0;right=0;align=left;spacingLeft=6;overflow=hidden;" vertex="1" parent="yF1DkwvLkhe0ymyQQ4cb-34">
          <mxGeometry x="30" width="170" height="30" as="geometry">
            <mxRectangle width="170" height="30" as="alternateBounds" />
          </mxGeometry>
        </mxCell>
        <mxCell id="yF1DkwvLkhe0ymyQQ4cb-37" value="" style="shape=partialRectangle;collapsible=0;dropTarget=0;pointerEvents=0;fillColor=none;top=0;left=0;bottom=0;right=0;points=[[0,0.5],[1,0.5]];portConstraint=eastwest;" vertex="1" parent="yF1DkwvLkhe0ymyQQ4cb-27">
          <mxGeometry y="150" width="200" height="30" as="geometry" />
        </mxCell>
        <mxCell id="yF1DkwvLkhe0ymyQQ4cb-38" value="" style="shape=partialRectangle;connectable=0;fillColor=none;top=0;left=0;bottom=0;right=0;editable=1;overflow=hidden;" vertex="1" parent="yF1DkwvLkhe0ymyQQ4cb-37">
          <mxGeometry width="30" height="30" as="geometry">
            <mxRectangle width="30" height="30" as="alternateBounds" />
          </mxGeometry>
        </mxCell>
        <mxCell id="yF1DkwvLkhe0ymyQQ4cb-39" value="limitprice:Float" style="shape=partialRectangle;connectable=0;fillColor=none;top=0;left=0;bottom=0;right=0;align=left;spacingLeft=6;overflow=hidden;" vertex="1" parent="yF1DkwvLkhe0ymyQQ4cb-37">
          <mxGeometry x="30" width="170" height="30" as="geometry">
            <mxRectangle width="170" height="30" as="alternateBounds" />
          </mxGeometry>
        </mxCell>
        <mxCell id="yF1DkwvLkhe0ymyQQ4cb-130" style="shape=partialRectangle;collapsible=0;dropTarget=0;pointerEvents=0;fillColor=none;top=0;left=0;bottom=0;right=0;points=[[0,0.5],[1,0.5]];portConstraint=eastwest;" vertex="1" parent="yF1DkwvLkhe0ymyQQ4cb-27">
          <mxGeometry y="180" width="200" height="30" as="geometry" />
        </mxCell>
        <mxCell id="yF1DkwvLkhe0ymyQQ4cb-131" style="shape=partialRectangle;connectable=0;fillColor=none;top=0;left=0;bottom=0;right=0;editable=1;overflow=hidden;" vertex="1" parent="yF1DkwvLkhe0ymyQQ4cb-130">
          <mxGeometry width="30" height="30" as="geometry">
            <mxRectangle width="30" height="30" as="alternateBounds" />
          </mxGeometry>
        </mxCell>
        <mxCell id="yF1DkwvLkhe0ymyQQ4cb-132" value="orderPosition:Position" style="shape=partialRectangle;connectable=0;fillColor=none;top=0;left=0;bottom=0;right=0;align=left;spacingLeft=6;overflow=hidden;" vertex="1" parent="yF1DkwvLkhe0ymyQQ4cb-130">
          <mxGeometry x="30" width="170" height="30" as="geometry">
            <mxRectangle width="170" height="30" as="alternateBounds" />
          </mxGeometry>
        </mxCell>
        <mxCell id="yF1DkwvLkhe0ymyQQ4cb-47" value="Orderbook" style="shape=table;startSize=30;container=1;collapsible=1;childLayout=tableLayout;fixedRows=1;rowLines=0;fontStyle=1;align=center;resizeLast=1;" vertex="1" parent="yF1DkwvLkhe0ymyQQ4cb-1">
          <mxGeometry width="160" height="130" as="geometry" />
        </mxCell>
        <mxCell id="yF1DkwvLkhe0ymyQQ4cb-48" value="" style="shape=partialRectangle;collapsible=0;dropTarget=0;pointerEvents=0;fillColor=none;top=0;left=0;bottom=1;right=0;points=[[0,0.5],[1,0.5]];portConstraint=eastwest;" vertex="1" parent="yF1DkwvLkhe0ymyQQ4cb-47">
          <mxGeometry y="30" width="160" height="30" as="geometry" />
        </mxCell>
        <mxCell id="yF1DkwvLkhe0ymyQQ4cb-49" value="PK" style="shape=partialRectangle;connectable=0;fillColor=none;top=0;left=0;bottom=0;right=0;fontStyle=1;overflow=hidden;" vertex="1" parent="yF1DkwvLkhe0ymyQQ4cb-48">
          <mxGeometry width="30" height="30" as="geometry">
            <mxRectangle width="30" height="30" as="alternateBounds" />
          </mxGeometry>
        </mxCell>
        <mxCell id="yF1DkwvLkhe0ymyQQ4cb-50" value="bookId:Long" style="shape=partialRectangle;connectable=0;fillColor=none;top=0;left=0;bottom=0;right=0;align=left;spacingLeft=6;fontStyle=5;overflow=hidden;" vertex="1" parent="yF1DkwvLkhe0ymyQQ4cb-48">
          <mxGeometry x="30" width="130" height="30" as="geometry">
            <mxRectangle width="130" height="30" as="alternateBounds" />
          </mxGeometry>
        </mxCell>
        <mxCell id="yF1DkwvLkhe0ymyQQ4cb-51" value="" style="shape=partialRectangle;collapsible=0;dropTarget=0;pointerEvents=0;fillColor=none;top=0;left=0;bottom=0;right=0;points=[[0,0.5],[1,0.5]];portConstraint=eastwest;" vertex="1" parent="yF1DkwvLkhe0ymyQQ4cb-47">
          <mxGeometry y="60" width="160" height="30" as="geometry" />
        </mxCell>
        <mxCell id="yF1DkwvLkhe0ymyQQ4cb-52" value="" style="shape=partialRectangle;connectable=0;fillColor=none;top=0;left=0;bottom=0;right=0;editable=1;overflow=hidden;" vertex="1" parent="yF1DkwvLkhe0ymyQQ4cb-51">
          <mxGeometry width="30" height="30" as="geometry">
            <mxRectangle width="30" height="30" as="alternateBounds" />
          </mxGeometry>
        </mxCell>
        <mxCell id="yF1DkwvLkhe0ymyQQ4cb-53" value="side:String" style="shape=partialRectangle;connectable=0;fillColor=none;top=0;left=0;bottom=0;right=0;align=left;spacingLeft=6;overflow=hidden;" vertex="1" parent="yF1DkwvLkhe0ymyQQ4cb-51">
          <mxGeometry x="30" width="130" height="30" as="geometry">
            <mxRectangle width="130" height="30" as="alternateBounds" />
          </mxGeometry>
        </mxCell>
        <mxCell id="yF1DkwvLkhe0ymyQQ4cb-150" style="shape=partialRectangle;collapsible=0;dropTarget=0;pointerEvents=0;fillColor=none;top=0;left=0;bottom=0;right=0;points=[[0,0.5],[1,0.5]];portConstraint=eastwest;" vertex="1" parent="yF1DkwvLkhe0ymyQQ4cb-47">
          <mxGeometry y="90" width="160" height="30" as="geometry" />
        </mxCell>
        <mxCell id="yF1DkwvLkhe0ymyQQ4cb-151" style="shape=partialRectangle;connectable=0;fillColor=none;top=0;left=0;bottom=0;right=0;editable=1;overflow=hidden;" vertex="1" parent="yF1DkwvLkhe0ymyQQ4cb-150">
          <mxGeometry width="30" height="30" as="geometry">
            <mxRectangle width="30" height="30" as="alternateBounds" />
          </mxGeometry>
        </mxCell>
        <mxCell id="yF1DkwvLkhe0ymyQQ4cb-152" value="List&lt;Order&gt;" style="shape=partialRectangle;connectable=0;fillColor=none;top=0;left=0;bottom=0;right=0;align=left;spacingLeft=6;overflow=hidden;" vertex="1" parent="yF1DkwvLkhe0ymyQQ4cb-150">
          <mxGeometry x="30" width="130" height="30" as="geometry">
            <mxRectangle width="130" height="30" as="alternateBounds" />
          </mxGeometry>
        </mxCell>
        <mxCell id="yF1DkwvLkhe0ymyQQ4cb-88" style="edgeStyle=elbowEdgeStyle;rounded=0;orthogonalLoop=1;jettySize=auto;html=1;startArrow=ERmandOne;startFill=0;endArrow=ERmandOne;endFill=0;startSize=8;endSize=8;" edge="1" parent="yF1DkwvLkhe0ymyQQ4cb-1" source="yF1DkwvLkhe0ymyQQ4cb-62" target="yF1DkwvLkhe0ymyQQ4cb-75">
          <mxGeometry relative="1" as="geometry">
            <Array as="points">
              <mxPoint x="470" y="20" />
              <mxPoint x="460" y="30" />
              <mxPoint x="460" y="80" />
              <mxPoint x="440" y="65" />
            </Array>
          </mxGeometry>
        </mxCell>
        <mxCell id="yF1DkwvLkhe0ymyQQ4cb-62" value="User" style="shape=table;startSize=30;container=1;collapsible=1;childLayout=tableLayout;fixedRows=1;rowLines=0;fontStyle=1;align=center;resizeLast=1;" vertex="1" parent="yF1DkwvLkhe0ymyQQ4cb-1">
          <mxGeometry x="300" width="160" height="130" as="geometry" />
        </mxCell>
        <mxCell id="yF1DkwvLkhe0ymyQQ4cb-63" value="" style="shape=partialRectangle;collapsible=0;dropTarget=0;pointerEvents=0;fillColor=none;top=0;left=0;bottom=1;right=0;points=[[0,0.5],[1,0.5]];portConstraint=eastwest;" vertex="1" parent="yF1DkwvLkhe0ymyQQ4cb-62">
          <mxGeometry y="30" width="160" height="30" as="geometry" />
        </mxCell>
        <mxCell id="yF1DkwvLkhe0ymyQQ4cb-64" value="PK" style="shape=partialRectangle;connectable=0;fillColor=none;top=0;left=0;bottom=0;right=0;fontStyle=1;overflow=hidden;" vertex="1" parent="yF1DkwvLkhe0ymyQQ4cb-63">
          <mxGeometry width="30" height="30" as="geometry">
            <mxRectangle width="30" height="30" as="alternateBounds" />
          </mxGeometry>
        </mxCell>
        <mxCell id="yF1DkwvLkhe0ymyQQ4cb-65" value="userId:String" style="shape=partialRectangle;connectable=0;fillColor=none;top=0;left=0;bottom=0;right=0;align=left;spacingLeft=6;fontStyle=5;overflow=hidden;" vertex="1" parent="yF1DkwvLkhe0ymyQQ4cb-63">
          <mxGeometry x="30" width="130" height="30" as="geometry">
            <mxRectangle width="130" height="30" as="alternateBounds" />
          </mxGeometry>
        </mxCell>
        <mxCell id="yF1DkwvLkhe0ymyQQ4cb-66" value="" style="shape=partialRectangle;collapsible=0;dropTarget=0;pointerEvents=0;fillColor=none;top=0;left=0;bottom=0;right=0;points=[[0,0.5],[1,0.5]];portConstraint=eastwest;" vertex="1" parent="yF1DkwvLkhe0ymyQQ4cb-62">
          <mxGeometry y="60" width="160" height="30" as="geometry" />
        </mxCell>
        <mxCell id="yF1DkwvLkhe0ymyQQ4cb-67" value="" style="shape=partialRectangle;connectable=0;fillColor=none;top=0;left=0;bottom=0;right=0;editable=1;overflow=hidden;" vertex="1" parent="yF1DkwvLkhe0ymyQQ4cb-66">
          <mxGeometry width="30" height="30" as="geometry">
            <mxRectangle width="30" height="30" as="alternateBounds" />
          </mxGeometry>
        </mxCell>
        <mxCell id="yF1DkwvLkhe0ymyQQ4cb-68" value="name:String" style="shape=partialRectangle;connectable=0;fillColor=none;top=0;left=0;bottom=0;right=0;align=left;spacingLeft=6;overflow=hidden;" vertex="1" parent="yF1DkwvLkhe0ymyQQ4cb-66">
          <mxGeometry x="30" width="130" height="30" as="geometry">
            <mxRectangle width="130" height="30" as="alternateBounds" />
          </mxGeometry>
        </mxCell>
        <mxCell id="yF1DkwvLkhe0ymyQQ4cb-147" style="shape=partialRectangle;collapsible=0;dropTarget=0;pointerEvents=0;fillColor=none;top=0;left=0;bottom=0;right=0;points=[[0,0.5],[1,0.5]];portConstraint=eastwest;" vertex="1" parent="yF1DkwvLkhe0ymyQQ4cb-62">
          <mxGeometry y="90" width="160" height="30" as="geometry" />
        </mxCell>
        <mxCell id="yF1DkwvLkhe0ymyQQ4cb-148" style="shape=partialRectangle;connectable=0;fillColor=none;top=0;left=0;bottom=0;right=0;editable=1;overflow=hidden;" vertex="1" parent="yF1DkwvLkhe0ymyQQ4cb-147">
          <mxGeometry width="30" height="30" as="geometry">
            <mxRectangle width="30" height="30" as="alternateBounds" />
          </mxGeometry>
        </mxCell>
        <mxCell id="yF1DkwvLkhe0ymyQQ4cb-149" value="adresse:String" style="shape=partialRectangle;connectable=0;fillColor=none;top=0;left=0;bottom=0;right=0;align=left;spacingLeft=6;overflow=hidden;" vertex="1" parent="yF1DkwvLkhe0ymyQQ4cb-147">
          <mxGeometry x="30" width="130" height="30" as="geometry">
            <mxRectangle width="130" height="30" as="alternateBounds" />
          </mxGeometry>
        </mxCell>
        <mxCell id="yF1DkwvLkhe0ymyQQ4cb-145" style="edgeStyle=elbowEdgeStyle;rounded=0;orthogonalLoop=1;jettySize=auto;html=1;startArrow=ERmandOne;startFill=0;endArrow=ERzeroToMany;endFill=0;startSize=8;endSize=8;" edge="1" parent="yF1DkwvLkhe0ymyQQ4cb-1" source="yF1DkwvLkhe0ymyQQ4cb-75" target="yF1DkwvLkhe0ymyQQ4cb-137">
          <mxGeometry relative="1" as="geometry">
            <Array as="points">
              <mxPoint x="660" y="210" />
              <mxPoint x="600" y="260" />
              <mxPoint x="605" y="240" />
              <mxPoint x="620" y="260" />
            </Array>
          </mxGeometry>
        </mxCell>
        <mxCell id="yF1DkwvLkhe0ymyQQ4cb-166" style="edgeStyle=elbowEdgeStyle;rounded=0;orthogonalLoop=1;jettySize=auto;html=1;startArrow=ERmandOne;startFill=0;endArrow=ERzeroToMany;endFill=0;startSize=8;endSize=8;elbow=vertical;" edge="1" parent="yF1DkwvLkhe0ymyQQ4cb-1" source="yF1DkwvLkhe0ymyQQ4cb-75" target="yF1DkwvLkhe0ymyQQ4cb-158">
          <mxGeometry relative="1" as="geometry">
            <Array as="points">
              <mxPoint x="540" y="200" />
              <mxPoint x="470" y="200" />
              <mxPoint x="540" y="190" />
            </Array>
          </mxGeometry>
        </mxCell>
        <mxCell id="yF1DkwvLkhe0ymyQQ4cb-75" value="Portfolio" style="shape=table;startSize=30;container=1;collapsible=1;childLayout=tableLayout;fixedRows=1;rowLines=0;fontStyle=1;align=center;resizeLast=1;" vertex="1" parent="yF1DkwvLkhe0ymyQQ4cb-1">
          <mxGeometry x="500" width="200" height="160" as="geometry" />
        </mxCell>
        <mxCell id="yF1DkwvLkhe0ymyQQ4cb-79" value="" style="shape=partialRectangle;collapsible=0;dropTarget=0;pointerEvents=0;fillColor=none;top=0;left=0;bottom=1;right=0;points=[[0,0.5],[1,0.5]];portConstraint=eastwest;" vertex="1" parent="yF1DkwvLkhe0ymyQQ4cb-75">
          <mxGeometry y="30" width="200" height="30" as="geometry" />
        </mxCell>
        <mxCell id="yF1DkwvLkhe0ymyQQ4cb-80" value="PK" style="shape=partialRectangle;connectable=0;fillColor=none;top=0;left=0;bottom=0;right=0;fontStyle=1;overflow=hidden;" vertex="1" parent="yF1DkwvLkhe0ymyQQ4cb-79">
          <mxGeometry width="29.999999999999773" height="30" as="geometry">
            <mxRectangle width="29.999999999999773" height="30" as="alternateBounds" />
          </mxGeometry>
        </mxCell>
        <mxCell id="yF1DkwvLkhe0ymyQQ4cb-81" value="portfolioId:String" style="shape=partialRectangle;connectable=0;fillColor=none;top=0;left=0;bottom=0;right=0;align=left;spacingLeft=6;fontStyle=5;overflow=hidden;" vertex="1" parent="yF1DkwvLkhe0ymyQQ4cb-79">
          <mxGeometry x="29.999999999999773" width="170.00000000000023" height="30" as="geometry">
            <mxRectangle width="170.00000000000023" height="30" as="alternateBounds" />
          </mxGeometry>
        </mxCell>
        <mxCell id="yF1DkwvLkhe0ymyQQ4cb-82" value="" style="shape=partialRectangle;collapsible=0;dropTarget=0;pointerEvents=0;fillColor=none;top=0;left=0;bottom=0;right=0;points=[[0,0.5],[1,0.5]];portConstraint=eastwest;" vertex="1" parent="yF1DkwvLkhe0ymyQQ4cb-75">
          <mxGeometry y="60" width="200" height="30" as="geometry" />
        </mxCell>
        <mxCell id="yF1DkwvLkhe0ymyQQ4cb-83" value="" style="shape=partialRectangle;connectable=0;fillColor=none;top=0;left=0;bottom=0;right=0;editable=1;overflow=hidden;" vertex="1" parent="yF1DkwvLkhe0ymyQQ4cb-82">
          <mxGeometry width="29.999999999999773" height="30" as="geometry">
            <mxRectangle width="29.999999999999773" height="30" as="alternateBounds" />
          </mxGeometry>
        </mxCell>
        <mxCell id="yF1DkwvLkhe0ymyQQ4cb-84" value="cash:Long" style="shape=partialRectangle;connectable=0;fillColor=none;top=0;left=0;bottom=0;right=0;align=left;spacingLeft=6;overflow=hidden;" vertex="1" parent="yF1DkwvLkhe0ymyQQ4cb-82">
          <mxGeometry x="29.999999999999773" width="170.00000000000023" height="30" as="geometry">
            <mxRectangle width="170.00000000000023" height="30" as="alternateBounds" />
          </mxGeometry>
        </mxCell>
        <mxCell id="yF1DkwvLkhe0ymyQQ4cb-124" style="shape=partialRectangle;collapsible=0;dropTarget=0;pointerEvents=0;fillColor=none;top=0;left=0;bottom=0;right=0;points=[[0,0.5],[1,0.5]];portConstraint=eastwest;" vertex="1" parent="yF1DkwvLkhe0ymyQQ4cb-75">
          <mxGeometry y="90" width="200" height="30" as="geometry" />
        </mxCell>
        <mxCell id="yF1DkwvLkhe0ymyQQ4cb-125" style="shape=partialRectangle;connectable=0;fillColor=none;top=0;left=0;bottom=0;right=0;editable=1;overflow=hidden;" vertex="1" parent="yF1DkwvLkhe0ymyQQ4cb-124">
          <mxGeometry width="29.999999999999773" height="30" as="geometry">
            <mxRectangle width="29.999999999999773" height="30" as="alternateBounds" />
          </mxGeometry>
        </mxCell>
        <mxCell id="yF1DkwvLkhe0ymyQQ4cb-126" value="List&lt;PortfolioPosition&gt;" style="shape=partialRectangle;connectable=0;fillColor=none;top=0;left=0;bottom=0;right=0;align=left;spacingLeft=6;overflow=hidden;" vertex="1" parent="yF1DkwvLkhe0ymyQQ4cb-124">
          <mxGeometry x="29.999999999999773" width="170.00000000000023" height="30" as="geometry">
            <mxRectangle width="170.00000000000023" height="30" as="alternateBounds" />
          </mxGeometry>
        </mxCell>
        <mxCell id="yF1DkwvLkhe0ymyQQ4cb-155" style="shape=partialRectangle;collapsible=0;dropTarget=0;pointerEvents=0;fillColor=none;top=0;left=0;bottom=0;right=0;points=[[0,0.5],[1,0.5]];portConstraint=eastwest;" vertex="1" parent="yF1DkwvLkhe0ymyQQ4cb-75">
          <mxGeometry y="120" width="200" height="30" as="geometry" />
        </mxCell>
        <mxCell id="yF1DkwvLkhe0ymyQQ4cb-156" style="shape=partialRectangle;connectable=0;fillColor=none;top=0;left=0;bottom=0;right=0;editable=1;overflow=hidden;" vertex="1" parent="yF1DkwvLkhe0ymyQQ4cb-155">
          <mxGeometry width="29.999999999999773" height="30" as="geometry">
            <mxRectangle width="29.999999999999773" height="30" as="alternateBounds" />
          </mxGeometry>
        </mxCell>
        <mxCell id="yF1DkwvLkhe0ymyQQ4cb-157" value="List&lt;UserTrade&gt;" style="shape=partialRectangle;connectable=0;fillColor=none;top=0;left=0;bottom=0;right=0;align=left;spacingLeft=6;overflow=hidden;" vertex="1" parent="yF1DkwvLkhe0ymyQQ4cb-155">
          <mxGeometry x="29.999999999999773" width="170.00000000000023" height="30" as="geometry">
            <mxRectangle width="170.00000000000023" height="30" as="alternateBounds" />
          </mxGeometry>
        </mxCell>
        <mxCell id="yF1DkwvLkhe0ymyQQ4cb-89" value="Asset" style="shape=table;startSize=30;container=1;collapsible=1;childLayout=tableLayout;fixedRows=1;rowLines=0;fontStyle=1;align=center;resizeLast=1;" vertex="1" parent="yF1DkwvLkhe0ymyQQ4cb-1">
          <mxGeometry x="260" y="560" width="160" height="129" as="geometry" />
        </mxCell>
        <mxCell id="yF1DkwvLkhe0ymyQQ4cb-90" value="" style="shape=partialRectangle;collapsible=0;dropTarget=0;pointerEvents=0;fillColor=none;top=0;left=0;bottom=1;right=0;points=[[0,0.5],[1,0.5]];portConstraint=eastwest;" vertex="1" parent="yF1DkwvLkhe0ymyQQ4cb-89">
          <mxGeometry y="30" width="160" height="30" as="geometry" />
        </mxCell>
        <mxCell id="yF1DkwvLkhe0ymyQQ4cb-91" value="PK" style="shape=partialRectangle;connectable=0;fillColor=none;top=0;left=0;bottom=0;right=0;fontStyle=1;overflow=hidden;" vertex="1" parent="yF1DkwvLkhe0ymyQQ4cb-90">
          <mxGeometry width="30" height="30" as="geometry">
            <mxRectangle width="30" height="30" as="alternateBounds" />
          </mxGeometry>
        </mxCell>
        <mxCell id="yF1DkwvLkhe0ymyQQ4cb-92" value="ISIN:String" style="shape=partialRectangle;connectable=0;fillColor=none;top=0;left=0;bottom=0;right=0;align=left;spacingLeft=6;fontStyle=5;overflow=hidden;" vertex="1" parent="yF1DkwvLkhe0ymyQQ4cb-90">
          <mxGeometry x="30" width="130" height="30" as="geometry">
            <mxRectangle width="130" height="30" as="alternateBounds" />
          </mxGeometry>
        </mxCell>
        <mxCell id="yF1DkwvLkhe0ymyQQ4cb-93" value="" style="shape=partialRectangle;collapsible=0;dropTarget=0;pointerEvents=0;fillColor=none;top=0;left=0;bottom=0;right=0;points=[[0,0.5],[1,0.5]];portConstraint=eastwest;" vertex="1" parent="yF1DkwvLkhe0ymyQQ4cb-89">
          <mxGeometry y="60" width="160" height="30" as="geometry" />
        </mxCell>
        <mxCell id="yF1DkwvLkhe0ymyQQ4cb-94" value="" style="shape=partialRectangle;connectable=0;fillColor=none;top=0;left=0;bottom=0;right=0;editable=1;overflow=hidden;" vertex="1" parent="yF1DkwvLkhe0ymyQQ4cb-93">
          <mxGeometry width="30" height="30" as="geometry">
            <mxRectangle width="30" height="30" as="alternateBounds" />
          </mxGeometry>
        </mxCell>
        <mxCell id="yF1DkwvLkhe0ymyQQ4cb-95" value="name:String" style="shape=partialRectangle;connectable=0;fillColor=none;top=0;left=0;bottom=0;right=0;align=left;spacingLeft=6;overflow=hidden;" vertex="1" parent="yF1DkwvLkhe0ymyQQ4cb-93">
          <mxGeometry x="30" width="130" height="30" as="geometry">
            <mxRectangle width="130" height="30" as="alternateBounds" />
          </mxGeometry>
        </mxCell>
        <mxCell id="yF1DkwvLkhe0ymyQQ4cb-96" value="" style="shape=partialRectangle;collapsible=0;dropTarget=0;pointerEvents=0;fillColor=none;top=0;left=0;bottom=0;right=0;points=[[0,0.5],[1,0.5]];portConstraint=eastwest;" vertex="1" parent="yF1DkwvLkhe0ymyQQ4cb-89">
          <mxGeometry y="90" width="160" height="30" as="geometry" />
        </mxCell>
        <mxCell id="yF1DkwvLkhe0ymyQQ4cb-97" value="" style="shape=partialRectangle;connectable=0;fillColor=none;top=0;left=0;bottom=0;right=0;editable=1;overflow=hidden;" vertex="1" parent="yF1DkwvLkhe0ymyQQ4cb-96">
          <mxGeometry width="30" height="30" as="geometry">
            <mxRectangle width="30" height="30" as="alternateBounds" />
          </mxGeometry>
        </mxCell>
        <mxCell id="yF1DkwvLkhe0ymyQQ4cb-98" value="ticker:String" style="shape=partialRectangle;connectable=0;fillColor=none;top=0;left=0;bottom=0;right=0;align=left;spacingLeft=6;overflow=hidden;" vertex="1" parent="yF1DkwvLkhe0ymyQQ4cb-96">
          <mxGeometry x="30" width="130" height="30" as="geometry">
            <mxRectangle width="130" height="30" as="alternateBounds" />
          </mxGeometry>
        </mxCell>
        <mxCell id="yF1DkwvLkhe0ymyQQ4cb-153" style="edgeStyle=elbowEdgeStyle;rounded=0;orthogonalLoop=1;jettySize=auto;html=1;startArrow=ERmandOne;startFill=0;endArrow=ERzeroToMany;endFill=0;startSize=8;exitX=1;exitY=0.25;exitDx=0;exitDy=0;entryX=1;entryY=0.5;entryDx=0;entryDy=0;endSize=8;" edge="1" parent="yF1DkwvLkhe0ymyQQ4cb-89" source="yF1DkwvLkhe0ymyQQ4cb-89" target="yF1DkwvLkhe0ymyQQ4cb-96">
          <mxGeometry relative="1" as="geometry">
            <Array as="points">
              <mxPoint x="240" y="85" />
              <mxPoint x="280" y="75" />
              <mxPoint x="240" y="65" />
            </Array>
          </mxGeometry>
        </mxCell>
        <mxCell id="yF1DkwvLkhe0ymyQQ4cb-154" value="is derivate of" style="edgeLabel;html=1;align=center;verticalAlign=middle;resizable=0;points=[];" vertex="1" connectable="0" parent="yF1DkwvLkhe0ymyQQ4cb-153">
          <mxGeometry x="0.049" y="1" relative="1" as="geometry">
            <mxPoint y="-12" as="offset" />
          </mxGeometry>
        </mxCell>
        <mxCell id="yF1DkwvLkhe0ymyQQ4cb-112" style="edgeStyle=elbowEdgeStyle;rounded=0;orthogonalLoop=1;jettySize=auto;html=1;startArrow=ERmandOne;startFill=0;endArrow=ERmandOne;endFill=0;startSize=8;endSize=8;" edge="1" parent="yF1DkwvLkhe0ymyQQ4cb-1" source="yF1DkwvLkhe0ymyQQ4cb-114" target="yF1DkwvLkhe0ymyQQ4cb-89">
          <mxGeometry relative="1" as="geometry" />
        </mxCell>
        <mxCell id="yF1DkwvLkhe0ymyQQ4cb-114" value="Position" style="shape=table;startSize=30;container=1;collapsible=1;childLayout=tableLayout;fixedRows=1;rowLines=0;fontStyle=1;align=center;resizeLast=1;" vertex="1" parent="yF1DkwvLkhe0ymyQQ4cb-1">
          <mxGeometry x="260" y="390" width="160" height="100" as="geometry" />
        </mxCell>
        <mxCell id="yF1DkwvLkhe0ymyQQ4cb-118" value="" style="shape=partialRectangle;collapsible=0;dropTarget=0;pointerEvents=0;fillColor=none;top=0;left=0;bottom=0;right=0;points=[[0,0.5],[1,0.5]];portConstraint=eastwest;" vertex="1" parent="yF1DkwvLkhe0ymyQQ4cb-114">
          <mxGeometry y="30" width="160" height="30" as="geometry" />
        </mxCell>
        <mxCell id="yF1DkwvLkhe0ymyQQ4cb-119" value="" style="shape=partialRectangle;connectable=0;fillColor=none;top=0;left=0;bottom=0;right=0;editable=1;overflow=hidden;" vertex="1" parent="yF1DkwvLkhe0ymyQQ4cb-118">
          <mxGeometry width="29.999999999999773" height="30" as="geometry">
            <mxRectangle width="29.999999999999773" height="30" as="alternateBounds" />
          </mxGeometry>
        </mxCell>
        <mxCell id="yF1DkwvLkhe0ymyQQ4cb-120" value="asset:Asset" style="shape=partialRectangle;connectable=0;fillColor=none;top=0;left=0;bottom=0;right=0;align=left;spacingLeft=6;overflow=hidden;" vertex="1" parent="yF1DkwvLkhe0ymyQQ4cb-118">
          <mxGeometry x="29.999999999999773" width="130.00000000000023" height="30" as="geometry">
            <mxRectangle width="130.00000000000023" height="30" as="alternateBounds" />
          </mxGeometry>
        </mxCell>
        <mxCell id="yF1DkwvLkhe0ymyQQ4cb-127" style="shape=partialRectangle;collapsible=0;dropTarget=0;pointerEvents=0;fillColor=none;top=0;left=0;bottom=0;right=0;points=[[0,0.5],[1,0.5]];portConstraint=eastwest;" vertex="1" parent="yF1DkwvLkhe0ymyQQ4cb-114">
          <mxGeometry y="60" width="160" height="30" as="geometry" />
        </mxCell>
        <mxCell id="yF1DkwvLkhe0ymyQQ4cb-128" style="shape=partialRectangle;connectable=0;fillColor=none;top=0;left=0;bottom=0;right=0;editable=1;overflow=hidden;" vertex="1" parent="yF1DkwvLkhe0ymyQQ4cb-127">
          <mxGeometry width="29.999999999999773" height="30" as="geometry">
            <mxRectangle width="29.999999999999773" height="30" as="alternateBounds" />
          </mxGeometry>
        </mxCell>
        <mxCell id="yF1DkwvLkhe0ymyQQ4cb-129" value="quant:Long" style="shape=partialRectangle;connectable=0;fillColor=none;top=0;left=0;bottom=0;right=0;align=left;spacingLeft=6;overflow=hidden;" vertex="1" parent="yF1DkwvLkhe0ymyQQ4cb-127">
          <mxGeometry x="29.999999999999773" width="130.00000000000023" height="30" as="geometry">
            <mxRectangle width="130.00000000000023" height="30" as="alternateBounds" />
          </mxGeometry>
        </mxCell>
        <mxCell id="yF1DkwvLkhe0ymyQQ4cb-136" style="edgeStyle=elbowEdgeStyle;rounded=0;orthogonalLoop=1;jettySize=auto;html=1;startArrow=ERmandOne;startFill=0;endArrow=ERmandOne;endFill=0;startSize=8;endSize=8;" edge="1" parent="yF1DkwvLkhe0ymyQQ4cb-1" source="yF1DkwvLkhe0ymyQQ4cb-27" target="yF1DkwvLkhe0ymyQQ4cb-114">
          <mxGeometry relative="1" as="geometry">
            <Array as="points">
              <mxPoint x="80" y="440" />
              <mxPoint x="140" y="290" />
              <mxPoint x="120" y="440" />
              <mxPoint y="430" />
              <mxPoint x="130" y="440" />
              <mxPoint y="450" />
              <mxPoint x="170" y="450" />
              <mxPoint x="170" y="400" />
              <mxPoint x="250" y="440" />
              <mxPoint x="190" y="440" />
            </Array>
          </mxGeometry>
        </mxCell>
        <mxCell id="yF1DkwvLkhe0ymyQQ4cb-137" value="&lt;&lt;Weak&gt;&gt;PortfolioPosition" style="shape=table;startSize=30;container=1;collapsible=1;childLayout=tableLayout;fixedRows=1;rowLines=0;fontStyle=1;align=center;resizeLast=1;" vertex="1" parent="yF1DkwvLkhe0ymyQQ4cb-1">
          <mxGeometry x="500" y="240" width="200" height="100" as="geometry" />
        </mxCell>
        <mxCell id="yF1DkwvLkhe0ymyQQ4cb-138" value="" style="shape=partialRectangle;collapsible=0;dropTarget=0;pointerEvents=0;fillColor=none;top=0;left=0;bottom=0;right=0;points=[[0,0.5],[1,0.5]];portConstraint=eastwest;" vertex="1" parent="yF1DkwvLkhe0ymyQQ4cb-137">
          <mxGeometry y="30" width="200" height="30" as="geometry" />
        </mxCell>
        <mxCell id="yF1DkwvLkhe0ymyQQ4cb-139" value="" style="shape=partialRectangle;connectable=0;fillColor=none;top=0;left=0;bottom=0;right=0;editable=1;overflow=hidden;" vertex="1" parent="yF1DkwvLkhe0ymyQQ4cb-138">
          <mxGeometry width="29.999999999999773" height="30" as="geometry">
            <mxRectangle width="29.999999999999773" height="30" as="alternateBounds" />
          </mxGeometry>
        </mxCell>
        <mxCell id="yF1DkwvLkhe0ymyQQ4cb-140" value="portfolioPosition:Position" style="shape=partialRectangle;connectable=0;fillColor=none;top=0;left=0;bottom=0;right=0;align=left;spacingLeft=6;overflow=hidden;" vertex="1" parent="yF1DkwvLkhe0ymyQQ4cb-138">
          <mxGeometry x="29.999999999999773" width="170.00000000000023" height="30" as="geometry">
            <mxRectangle width="170.00000000000023" height="30" as="alternateBounds" />
          </mxGeometry>
        </mxCell>
        <mxCell id="yF1DkwvLkhe0ymyQQ4cb-141" style="shape=partialRectangle;collapsible=0;dropTarget=0;pointerEvents=0;fillColor=none;top=0;left=0;bottom=0;right=0;points=[[0,0.5],[1,0.5]];portConstraint=eastwest;" vertex="1" parent="yF1DkwvLkhe0ymyQQ4cb-137">
          <mxGeometry y="60" width="200" height="30" as="geometry" />
        </mxCell>
        <mxCell id="yF1DkwvLkhe0ymyQQ4cb-142" style="shape=partialRectangle;connectable=0;fillColor=none;top=0;left=0;bottom=0;right=0;editable=1;overflow=hidden;" vertex="1" parent="yF1DkwvLkhe0ymyQQ4cb-141">
          <mxGeometry width="29.999999999999773" height="30" as="geometry">
            <mxRectangle width="29.999999999999773" height="30" as="alternateBounds" />
          </mxGeometry>
        </mxCell>
        <mxCell id="yF1DkwvLkhe0ymyQQ4cb-143" value="executionPrice:Float" style="shape=partialRectangle;connectable=0;fillColor=none;top=0;left=0;bottom=0;right=0;align=left;spacingLeft=6;overflow=hidden;" vertex="1" parent="yF1DkwvLkhe0ymyQQ4cb-141">
          <mxGeometry x="29.999999999999773" width="170.00000000000023" height="30" as="geometry">
            <mxRectangle width="170.00000000000023" height="30" as="alternateBounds" />
          </mxGeometry>
        </mxCell>
        <mxCell id="yF1DkwvLkhe0ymyQQ4cb-146" style="edgeStyle=elbowEdgeStyle;rounded=0;orthogonalLoop=1;jettySize=auto;html=1;startArrow=ERmandOne;startFill=0;endArrow=ERmandOne;endFill=0;startSize=8;endSize=8;" edge="1" parent="yF1DkwvLkhe0ymyQQ4cb-1" source="yF1DkwvLkhe0ymyQQ4cb-114" target="yF1DkwvLkhe0ymyQQ4cb-137">
          <mxGeometry relative="1" as="geometry">
            <Array as="points">
              <mxPoint x="600" y="370" />
              <mxPoint x="720" y="380" />
              <mxPoint x="600" y="320" />
              <mxPoint x="600" y="440" />
              <mxPoint x="600" y="420" />
              <mxPoint x="620" y="450" />
              <mxPoint x="620" y="430" />
              <mxPoint x="620" y="430" />
              <mxPoint x="610" y="410" />
              <mxPoint x="760" y="410" />
            </Array>
          </mxGeometry>
        </mxCell>
        <mxCell id="yF1DkwvLkhe0ymyQQ4cb-165" style="edgeStyle=elbowEdgeStyle;rounded=0;orthogonalLoop=1;jettySize=auto;html=1;startArrow=ERmandOne;startFill=0;endArrow=ERmandOne;endFill=0;startSize=8;endSize=8;" edge="1" parent="yF1DkwvLkhe0ymyQQ4cb-1" source="yF1DkwvLkhe0ymyQQ4cb-158" target="yF1DkwvLkhe0ymyQQ4cb-114">
          <mxGeometry relative="1" as="geometry">
            <Array as="points">
              <mxPoint x="340" y="370" />
            </Array>
          </mxGeometry>
        </mxCell>
        <mxCell id="yF1DkwvLkhe0ymyQQ4cb-158" value="&lt;&lt;Weak&gt;&gt;UserTrade" style="shape=table;startSize=30;container=1;collapsible=1;childLayout=tableLayout;fixedRows=1;rowLines=0;fontStyle=1;align=center;resizeLast=1;" vertex="1" parent="yF1DkwvLkhe0ymyQQ4cb-1">
          <mxGeometry x="260" y="240" width="200" height="100" as="geometry" />
        </mxCell>
        <mxCell id="yF1DkwvLkhe0ymyQQ4cb-159" value="" style="shape=partialRectangle;collapsible=0;dropTarget=0;pointerEvents=0;fillColor=none;top=0;left=0;bottom=0;right=0;points=[[0,0.5],[1,0.5]];portConstraint=eastwest;" vertex="1" parent="yF1DkwvLkhe0ymyQQ4cb-158">
          <mxGeometry y="30" width="200" height="30" as="geometry" />
        </mxCell>
        <mxCell id="yF1DkwvLkhe0ymyQQ4cb-160" value="" style="shape=partialRectangle;connectable=0;fillColor=none;top=0;left=0;bottom=0;right=0;editable=1;overflow=hidden;" vertex="1" parent="yF1DkwvLkhe0ymyQQ4cb-159">
          <mxGeometry width="29.999999999999773" height="30" as="geometry">
            <mxRectangle width="29.999999999999773" height="30" as="alternateBounds" />
          </mxGeometry>
        </mxCell>
        <mxCell id="yF1DkwvLkhe0ymyQQ4cb-161" value="position:Position" style="shape=partialRectangle;connectable=0;fillColor=none;top=0;left=0;bottom=0;right=0;align=left;spacingLeft=6;overflow=hidden;" vertex="1" parent="yF1DkwvLkhe0ymyQQ4cb-159">
          <mxGeometry x="29.999999999999773" width="170.00000000000023" height="30" as="geometry">
            <mxRectangle width="170.00000000000023" height="30" as="alternateBounds" />
          </mxGeometry>
        </mxCell>
        <mxCell id="yF1DkwvLkhe0ymyQQ4cb-162" style="shape=partialRectangle;collapsible=0;dropTarget=0;pointerEvents=0;fillColor=none;top=0;left=0;bottom=0;right=0;points=[[0,0.5],[1,0.5]];portConstraint=eastwest;" vertex="1" parent="yF1DkwvLkhe0ymyQQ4cb-158">
          <mxGeometry y="60" width="200" height="30" as="geometry" />
        </mxCell>
        <mxCell id="yF1DkwvLkhe0ymyQQ4cb-163" style="shape=partialRectangle;connectable=0;fillColor=none;top=0;left=0;bottom=0;right=0;editable=1;overflow=hidden;" vertex="1" parent="yF1DkwvLkhe0ymyQQ4cb-162">
          <mxGeometry width="29.999999999999773" height="30" as="geometry">
            <mxRectangle width="29.999999999999773" height="30" as="alternateBounds" />
          </mxGeometry>
        </mxCell>
        <mxCell id="yF1DkwvLkhe0ymyQQ4cb-164" value="executionPrice:Float" style="shape=partialRectangle;connectable=0;fillColor=none;top=0;left=0;bottom=0;right=0;align=left;spacingLeft=6;overflow=hidden;" vertex="1" parent="yF1DkwvLkhe0ymyQQ4cb-162">
          <mxGeometry x="29.999999999999773" width="170.00000000000023" height="30" as="geometry">
            <mxRectangle width="170.00000000000023" height="30" as="alternateBounds" />
          </mxGeometry>
        </mxCell>
        <mxCell id="yF1DkwvLkhe0ymyQQ4cb-179" style="edgeStyle=elbowEdgeStyle;rounded=0;orthogonalLoop=1;jettySize=auto;html=1;startArrow=ERzeroToMany;startFill=0;endArrow=ERoneToMany;endFill=0;startSize=8;endSize=8;" edge="1" parent="yF1DkwvLkhe0ymyQQ4cb-1" source="yF1DkwvLkhe0ymyQQ4cb-167" target="yF1DkwvLkhe0ymyQQ4cb-89">
          <mxGeometry relative="1" as="geometry" />
        </mxCell>
        <mxCell id="yF1DkwvLkhe0ymyQQ4cb-167" value="Index" style="shape=table;startSize=30;container=1;collapsible=1;childLayout=tableLayout;fixedRows=1;rowLines=0;fontStyle=1;align=center;resizeLast=1;" vertex="1" parent="yF1DkwvLkhe0ymyQQ4cb-1">
          <mxGeometry x="40" y="560" width="160" height="129" as="geometry" />
        </mxCell>
        <mxCell id="yF1DkwvLkhe0ymyQQ4cb-168" value="" style="shape=partialRectangle;collapsible=0;dropTarget=0;pointerEvents=0;fillColor=none;top=0;left=0;bottom=1;right=0;points=[[0,0.5],[1,0.5]];portConstraint=eastwest;" vertex="1" parent="yF1DkwvLkhe0ymyQQ4cb-167">
          <mxGeometry y="30" width="160" height="30" as="geometry" />
        </mxCell>
        <mxCell id="yF1DkwvLkhe0ymyQQ4cb-169" value="PK" style="shape=partialRectangle;connectable=0;fillColor=none;top=0;left=0;bottom=0;right=0;fontStyle=1;overflow=hidden;" vertex="1" parent="yF1DkwvLkhe0ymyQQ4cb-168">
          <mxGeometry width="30" height="30" as="geometry">
            <mxRectangle width="30" height="30" as="alternateBounds" />
          </mxGeometry>
        </mxCell>
        <mxCell id="yF1DkwvLkhe0ymyQQ4cb-170" value="ISIN:String" style="shape=partialRectangle;connectable=0;fillColor=none;top=0;left=0;bottom=0;right=0;align=left;spacingLeft=6;fontStyle=5;overflow=hidden;" vertex="1" parent="yF1DkwvLkhe0ymyQQ4cb-168">
          <mxGeometry x="30" width="130" height="30" as="geometry">
            <mxRectangle width="130" height="30" as="alternateBounds" />
          </mxGeometry>
        </mxCell>
        <mxCell id="yF1DkwvLkhe0ymyQQ4cb-171" value="" style="shape=partialRectangle;collapsible=0;dropTarget=0;pointerEvents=0;fillColor=none;top=0;left=0;bottom=0;right=0;points=[[0,0.5],[1,0.5]];portConstraint=eastwest;" vertex="1" parent="yF1DkwvLkhe0ymyQQ4cb-167">
          <mxGeometry y="60" width="160" height="30" as="geometry" />
        </mxCell>
        <mxCell id="yF1DkwvLkhe0ymyQQ4cb-172" value="" style="shape=partialRectangle;connectable=0;fillColor=none;top=0;left=0;bottom=0;right=0;editable=1;overflow=hidden;" vertex="1" parent="yF1DkwvLkhe0ymyQQ4cb-171">
          <mxGeometry width="30" height="30" as="geometry">
            <mxRectangle width="30" height="30" as="alternateBounds" />
          </mxGeometry>
        </mxCell>
        <mxCell id="yF1DkwvLkhe0ymyQQ4cb-173" value="name:String" style="shape=partialRectangle;connectable=0;fillColor=none;top=0;left=0;bottom=0;right=0;align=left;spacingLeft=6;overflow=hidden;" vertex="1" parent="yF1DkwvLkhe0ymyQQ4cb-171">
          <mxGeometry x="30" width="130" height="30" as="geometry">
            <mxRectangle width="130" height="30" as="alternateBounds" />
          </mxGeometry>
        </mxCell>
        <mxCell id="yF1DkwvLkhe0ymyQQ4cb-174" value="" style="shape=partialRectangle;collapsible=0;dropTarget=0;pointerEvents=0;fillColor=none;top=0;left=0;bottom=0;right=0;points=[[0,0.5],[1,0.5]];portConstraint=eastwest;" vertex="1" parent="yF1DkwvLkhe0ymyQQ4cb-167">
          <mxGeometry y="90" width="160" height="30" as="geometry" />
        </mxCell>
        <mxCell id="yF1DkwvLkhe0ymyQQ4cb-175" value="" style="shape=partialRectangle;connectable=0;fillColor=none;top=0;left=0;bottom=0;right=0;editable=1;overflow=hidden;" vertex="1" parent="yF1DkwvLkhe0ymyQQ4cb-174">
          <mxGeometry width="30" height="30" as="geometry">
            <mxRectangle width="30" height="30" as="alternateBounds" />
          </mxGeometry>
        </mxCell>
        <mxCell id="yF1DkwvLkhe0ymyQQ4cb-176" value="ticker:String" style="shape=partialRectangle;connectable=0;fillColor=none;top=0;left=0;bottom=0;right=0;align=left;spacingLeft=6;overflow=hidden;" vertex="1" parent="yF1DkwvLkhe0ymyQQ4cb-174">
          <mxGeometry x="30" width="130" height="30" as="geometry">
            <mxRectangle width="130" height="30" as="alternateBounds" />
          </mxGeometry>
        </mxCell>
      </root>
    </mxGraphModel>
  </diagram>
</mxfile>
